<mxfile host="app.diagrams.net" modified="2023-06-29T07:10:20.929Z" agent="Mozilla/5.0 (Windows NT 10.0; Win64; x64) AppleWebKit/537.36 (KHTML, like Gecko) Chrome/114.0.0.0 Safari/537.36" version="21.3.2" etag="qOiKLHN-lXACXoiStVrK" type="github">
  <diagram name="Page-1" id="MpdV-iImPLmP9zjrW8-I">
    <mxGraphModel>
      <root>
        <mxCell id="0" />
        <mxCell id="1" parent="0" />
      </root>
    </mxGraphModel>
  </diagram>
</mxfile>
